<svg xmlns="http://www.w3.org/2000/svg" viewBox="0 0 292.6 292.6"><circle fill="#816C51" cx="146.3" cy="146.3" r="146.3"/><path fill="#FFF" d="M270.6 165.4c-3.4-7.4-9.6-15.8-18.1-24-4.7-4.6-10.1-9.2-16.1-13.6-14.1-10.4-28.9-17.8-41.4-21.4-13.4-3.9-24.6-3.4-30.5 2.4l-17 14.8c-2.7 0-5.3.2-8 .7-4.3.7-8.2-.2-11.8-2.7-4.6-3.3-9.2-6.6-13.7-10-2.8-2.1-5.5-4.2-8.3-6.2-7-5.2-14.1-10.3-21.4-15.1C77.8 86 71 81.8 64 78.3c-5.4-2.7-11.6-5.4-17.6-6.6-4.6-.9-9.7-1-13.7 1.7-1.3.9-2.5 2-3.4 3.4-.9 1.4-1.5 2.8-1.9 4.5-1.6 8.4 6.1 17.3 11.6 22.7 4.2 4.1 8.9 7.9 13.6 11.5 5.2 3.9 10.6 7.6 16.1 11.1 13.3 8.6 27 16.2 40.9 23.8 3.9 2.2 6.5 5.4 7.7 9.7 2.7 9.7 8.5 19 14.8 26.8 8 9.7 17.7 18.3 28.2 25.3 14.7 9.9 33 18.3 50.8 20.2 12.4 1.4 27.7-.2 35.4-11.5 1.6-2.3 3.2-4.6 4.7-7l3.1-5 15.1-20.7.1-.1c.4-.4.8-.9 1.2-1.5l-.1-.1.1.1c0-.1.1-.1.1-.2 4-5.4 3.6-12.8-.2-21zm-22.9 5.9c2.1 1.2 3.2 3.2 2.5 4.5-.7 1.3-3 1.4-5.1.3-2.1-1.2-3.2-3.2-2.5-4.5.7-1.3 3-1.4 5.1-.3zm-11.3-24.6c.7-1.3 3-1.5 5.1-.3 2.1 1.2 3.2 3.2 2.5 4.5-.7 1.3-3 1.4-5.1.3-2.1-1.2-3.3-3.2-2.5-4.5zm-.9 11.8c.7-1.3 3-1.4 5.1-.3 2.1 1.2 3.2 3.2 2.5 4.5-.7 1.3-3 1.4-5.1.3-2.1-1.1-3.2-3.1-2.5-4.5zm-1.2 12.8c-.7 1.3-3 1.4-5.1.3-2.1-1.2-3.2-3.2-2.5-4.5.7-1.3 3-1.4 5.1-.3 2.1 1.1 3.2 3.1 2.5 4.5zm-12.8-22.4c.7-1.3 3-1.4 5.1-.3 2.1 1.2 3.2 3.2 2.5 4.5-.7 1.3-3 1.4-5.1.3-2.1-1.2-3.2-3.2-2.5-4.5zm-77.3-11.3l16.4-14.2c.2.9.4 1.9.7 2.9l-17.8 16.4c.1-1.8.3-3.5.7-5.1zm-.1 11.7l19.3-17.8c1.2 2.6 2.7 5.3 4.6 8l-20.7 19.6c-1.4-3-2.5-6.4-3.2-9.8zm14.7 27.4c-3.3-3.8-6.2-7.8-8.7-12-.1-.2-.2-.4-.4-.6l21.3-20.2c2.6 3.3 5.6 6.8 9 10.2l-21.2 22.6zm3.7 3.9l21.4-22.8c4 3.7 8.4 7.4 13.2 11L178 193.6c-5.5-3.8-10.8-8.1-15.5-13zm19.9 16l19-24.7c6.1 4.2 12.2 7.9 18.2 10.9l-17 24c-7.1-2.7-13.9-6.2-20.2-10.2zm36.1 14.9c-3.6-.7-7.1-1.7-10.6-2.8l16.7-23.5c3.6 1.6 7.1 3 10.5 4.2l-15.4 22.4c-.5-.1-.9-.2-1.2-.3zm6.9 1.1l14.9-21.6c2.2.6 4.3 1.1 6.4 1.4l-14.4 20.7c-2.3-.1-4.6-.2-6.9-.5zm16-.1c-.8.1-1.7.2-2.6.3l13.9-19.8h2.6l-13.9 19.5zm10.2-50.4c-2.1-1.2-3.2-3.2-2.5-4.5.7-1.3 3-1.4 5.1-.3 2.1 1.2 3.2 3.2 2.5 4.5-.7 1.3-3 1.4-5.1.3zm12.6 13.7c-.7 1.3-3 1.4-5.1.3-2.1-1.2-3.2-3.2-2.5-4.5.7-1.3 3-1.4 5.1-.3 2.1 1.2 3.2 3.2 2.5 4.5z"/></svg>