<svg xmlns="http://www.w3.org/2000/svg" viewBox="0 0 292.6 292.6"><circle fill="#DE7126" cx="146.3" cy="146.3" r="146.3"/><path fill="#FFF" d="M252 174.2c-28.4 10.9-65.4 17.5-105.7 17.5S69 185.1 40.6 174.2C32 171 27.4 161.9 29.7 153c.1-.6.3-1.1.4-1.7 15.2 7.8 33.2 14 52.9 18.1 19.8 4.2 41.3 6.5 63.3 6.5 22.1 0 43.6-2.3 63.5-6.5 19.6-4.2 37.5-10.3 52.6-18.1.2.6.3 1.1.4 1.7 2.4 8.9-2.3 18-10.8 21.2zM31.3 147c.1 0 .3.1.4.2 14.9 7.8 32.7 13.8 52.2 18 19.5 4.1 40.7 6.3 62.4 6.3 21.8 0 43-2.2 62.6-6.4 19.5-4.2 37.4-10.3 52.3-18.1h.1c-2.6-8.9-5.8-17.5-9.5-25.6-6.4-14.3-18.7-23.5-34.1-25.8-22.1-3.3-46.1-5.1-71.3-5.1-25.2 0-49.3 1.8-71.3 5.1-15.5 2.3-27.7 11.5-34.1 25.8-3.9 8.1-7 16.7-9.7 25.6zm192-40.9c3 1.1 5.3 2.3 6.9 3.6 2.2 1.8 3.4 3.8 3.4 6 0 6.1-10.5 11-27.5 14.1-15.3 2.7-36.5 4.4-59.8 4.4-23.3 0-44.5-1.7-59.8-4.4-17-3-27.5-7.9-27.5-14.1 0-2.3 1.2-4.4 3.6-6.2 1.7-1.3 4.2-2.6 7.4-3.7 1.9-.7 3.9.3 4.6 2.1.7 1.9-.3 3.9-2.1 4.6-2.5.9-4.3 1.8-5.5 2.7-.5.4-.8.5-.8.6 0 2.1 8.2 4.6 21.6 7 15 2.7 35.7 4.3 58.6 4.3s43.6-1.6 58.6-4.3c13.3-2.4 21.6-4.9 21.6-7 0 0-.2-.1-.7-.5-1-.8-2.7-1.7-5-2.5-1.8-.7-2.8-2.8-2.1-4.6.6-1.8 2.7-2.8 4.5-2.1z"/></svg>