<svg xmlns="http://www.w3.org/2000/svg" viewBox="0 0 300 300"><circle fill="#93994B" cx="150" cy="150" r="150"/><path fill="#FFF" d="M210.9 50.5l-7 7 14.7 14.7-17.7 17.7-14-13.9-90.3 90.3 3.9 3.9-6.2 23.2 2.4 2.4-46.4 46.9c1 2.6 1.9 5.2 2.7 8.1l49.2-49.5 1.5 1.5 23.2-6.3 4.6 4.6 90.3-90.3-14.7-14.7 17.7-17.7 15.5 15.5 7-7-36.4-36.4zm-89.6 128.2L106.6 164l3.1-3.1 14.7 14.7-3.1 3.1zm12.4-12.3L119 151.7l3.1-3.1 14.7 14.7-3.1 3.1zM146 154l-14.7-14.7 3.1-3.1 14.7 14.7-3.1 3.1zm12.4-12.3L143.7 127l3.1-3.1 14.7 14.7-3.1 3.1zm-3.9-20.9l33.2-33.2 7.7 7.7-33.2 33.2-7.7-7.7zm56.4-10L177.7 144l-9.2-9.2 33.2-33.3 9.2 9.3z"/></svg>