<svg xmlns="http://www.w3.org/2000/svg" viewBox="0 0 292.6 292.6"><circle fill="#551813" cx="146.3" cy="146.3" r="146.3"/><g fill="#FFF"><path d="M154.9 188.3c1.1-2 1.2-7.2.9-13.5l-58.1-58.1c-17.7 12.6-26.9 27.9-22 44.9 6.4 22.6 34.6 34.2 67.2 13.1 1 3.3 1.7 6.1 2 7.9 1.2 7.4-26.5 21-30.3 25.6-3.8 4.6-4.4 23.6.4 21.8 4.8-1.8 5.9-15.5 7.3-20 1.6-4.4 29-14.8 32.6-21.7zm14.4-37.3c.1-.1.2-.2.3-.4l.5-.5c8.6 3.5 21 2.7 21 2.7s-1.3 9.3-1.8 18.1l7.2 7.2c3.8-10 6.5-26.1 4.1-30.7-1.6-3.1-9.3-7-16.8-10.1 2.1-1.6 4.1-3 6.1-4.3 7 3.7 18.8 2.7 18.8 2.7s-3.7 29.6.9 27.1c4.5-2.5 9.6-26.4 6.8-31.6-1.2-2.2-6.3-4.9-11.7-7.2 7.9-4.9 13.1-9.5 12.3-18.1-1.9-21.2-46.4-21.4-85-6.8-3.5 1.3-6.9 2.7-10.2 4.2l47.5 47.7z"/><path d="M155.8 174.8c1.5 5 2.8 9.4 3.2 11.9 1.2 7.4-26.5 21-30.3 25.6-3.8 4.6-4.4 23.6.4 21.8 4.8-1.8 5.9-15.5 7.3-20 1.4-4.5 28.8-14.9 32.5-21.7.4-.8.7-2 .8-3.5l-13.9-14.1z"/></g><path fill="#FFF" d="M60.394 69.028l8.273-8.273 162.704 162.704-8.273 8.273z"/></svg>