<svg xmlns="http://www.w3.org/2000/svg" viewBox="0 0 292.6 292.6"><circle fill="#F6AA34" cx="146.3" cy="146.3" r="146.3"/><path fill="#FFF" d="M130.1 68.7c.7.5 1.5.9 2.2 1.3 5.8 3.1 12.4 4.5 18.9 4.9 7 .4 14.2-.3 21.1-1.8 4.8-1 10.4-2.6 14.8-4.8 2.7-1.3 5.5-2.6 8.2-4.1 2.1-1.2 4-2.6 5.3-4.7 2.1-3.5 1.5-8 .7-11.8-1-4.8-7.7-7.7-11.7-9.3-6.7-2.5-14.1-4.2-21.1-5.6-6.4-1.2-12.9-2.2-19.4-2.8-2.5-.2-5.1-.5-7.7-.5-1.7-.1-3.6-.1-5.3.1-12.7 1.6-23.9 6.8-32.3 16.6C90.5 61.7 87.4 84.4 89.6 104c1.4 12.3 4.9 24.9 10.5 35.9 4.7 9.1 11.6 18.2 20.6 23.5h108.8c4.8 0 8.9-2.1 11.8-5.9 2.8-3.9 3.6-8.4 2.2-13-2.3-7.4-8.9-13.4-18.1-13.4H154c-2.9 0-5.8-.6-8.4-1.8-9.4-4.1-15.4-14.6-18.5-24-2.4-7.3-3.8-16-2.9-23.7.5-4.2 2-10.2 5.9-12.9zM84.4 206.1c-9.9 9-11.7 23.5-10.2 37.3.4 3.4 1.6 8.1 5.4 9.1 3.9 1 7.3-2.5 9.4-5.3 3.4-4.6 6.8-9.3 10.2-13.9 3.2-4.2 6.5-8.2 10.3-11.9 9-8.7 18.9-13.2 30.7-15.4H84.4v.1zm10.1-59.5c3.5 6.1 7.8 12 12.9 16.9H95.2c-1.8 0-3.2 1.5-3.2 3.2 0 1.8 1.5 3.2 3.2 3.2h133.4c4.1 0 7.8 1.7 10.5 4.4s4.4 6.4 4.4 10.5-1.7 7.8-4.4 10.5-6.4 4.4-10.5 4.4H92.8c-5.3 0-9.9-.9-13.8-2.6-5.3-2.2-9.3-5.6-12.1-9.7-2.7-4-4.1-8.7-4.1-13.4 0-3 .6-6 1.8-8.9 2.2-5.3 6.6-9.8 13.2-13.2 4.5-2.4 10.1-4.2 16.7-5.3zM152.8 45c0-1.9 2.6-3.5 5.8-3.5 3.2 0 5.8 1.6 5.8 3.5s-2.6 3.5-5.8 3.5c-3.2-.1-5.8-1.6-5.8-3.5z"/></svg>