<svg xmlns="http://www.w3.org/2000/svg" viewBox="0 0 226 196.9"><path fill="#FFF" d="M113 0C50.6 0 0 50.6 0 113c0 32.8 14 62.4 36.4 83.1h153.2C212 175.4 226 145.8 226 113 226 50.6 175.4 0 113 0zm31.8 195.7s-1.1.5-2.5.3c-1.4-.1-2.7-.7-2.7-.7s-1.2.2-2.9-.2c-1.7-.5-10.6-3.1-10.6-3.1H80.3c-.6.3-1.3.6-2.1.8-3.4.9-6.6 2.6-10.2 2.7-3.6.1-6 .2-6.6-.7 0 0-1.5-.3-1.1-1.8.3-1.5 1.5-3.3 2.4-4 .5-.4 1.8-.5 3.3-.7-3.5-.9-7.4-2.4-12.1-5.2-9.2-5.4-15.9-16.2-15.9-16.2l.4-.2-.4-.3.2-.2-.6-.2s2.3-1.3 4.1-1.1c1.9.2 3 .7 7.7 5 4.8 4.4 7.8 6.2 14.6 9.8 3.2 1.7 6.1 2.2 8.4 2.4-.3-.8-.5-1.6-.6-2-.4-1.4-1.8-3.8-2.5-4.7-.7-.9-1.7-9.1-1.8-10.6-.1-1.5 1.4-4.9 1.7-5.6.3-.7 1.4-5.1 3.9-9.7s8.1-3.4 8.1-3.4.8-.8 1.4-2.2c.6-1.3.7-5.2 0-7.6-.8-2.4-.7-8-.6-12.1.1-4 3.5-15.2 3.5-15.2s-.1-1.8-.3-3.7c-.3-1.9 2.2-8.8 3.1-12.4s3.6-5.3 4.5-7c.9-1.7.7-9.7.7-9.7.1-2-.1-2.9-.3-3.5-.3-.2-.4-.4-.4-.4s-.2.9-.2 1.7c0 .8 0 4-.3 5.3-.2 1.3-1.6 2.9-2.9 3.5-1.2.6-9.8-6.2-10.5-7.1-.7-.9-2.7-3.2-1.8-5.7s1.6-2.6 2.4-4.1c.9-1.5 2.4-6.6 3.1-7.9.7-1.3.9-1.8 1.8-2.2 1-.4 2.9-.9 4.5-2.3 1.5-1.4 3.9-6.3 7.8-9.3 3.9-3 8.9-3.8 9.5-4 .6-.2.6-.6.6-.6.7-1.5 5.6-1.5 8.6-1.3 3.1.2 3.9.9 3.9.9s2.4.8 3.4 1.2c1 .4.8 1.3 1 3 .2 1.6 0 4.3-.4 6.2-.3 2 .3 3.5.6 4.9.3 1.4.4 2.7-.2 3-.5.3-1.5-.1-2.7-2-1.2-1.9-1.8-5.9-1.8-5.8 0 .2.4 1.8.3 3.1-.1 1.3.6 3.3.7 3.8.1.5.6 1 .6 1 .5.4 1.6 2.1 1.7 2.6.1.5.7 1.9 1.1 2.4.4.5 1.1 1.6 1.7 3.4.6 1.8 1.1 4.3 1.3 5.6.2 1.4-.2 2-1 2.4-.8.5-2.1 0-2.1 0-.4.8-1.4 1.9-3.5 3.2-.5.3-1 .5-1.6.7l.7 5.2 3.7 2.7s3 3.1 6.8 7.9c3.8 4.8 4.3 15.6 4.1 24.8-.2 7.5-3 12.5-4.1 14-.2.4-.2.8-.1.9.4.6.5 1.6.8 2.5.4 1.1.5 13.5.5 13.5.9.9 4.8 5.6 5.7 7.2.9 1.6 1.3 6 .9 10.6-.3 3.2-4.4 10.6-6.9 14.1l.2 4.3c.9.6 2.6 1.5 4.3 1.6 2.5.1 7.5.2 9 2.3 1.6 2 2.5 3.3 2.4 4.6.1 1.8-1.6 1.6-1.6 1.6z"/><path fill="#FFF" d="M128.6 112.1c2.4.1 4.4 1.5 4.4 1.5-1.4-1.3-4.4-1.7-4.4-1.7h-.6c0-.1 0-.3-.1-.4.2-.1.7-.4 1.1-.6 3.6-1.3 6.7-1.5 6.7-1.5-1.2-.1-4.5.7-6.2 1.2.5-.3 1-.7 1.4-1 1.1-1 2.1-3 2.1-3s-.9 1.6-2 2.7c-.5.5-1.3 1-2 1.4-.4.1-.6.2-.6.2s-.4.1-.7.3c-.1-.1 0-.2 0-.2 0-.3-.4-.6-.7-.8h.1s3-1.4 3.8-2.8c0 0-1.2 1.5-3.9 2.7h-.1c-.3-.2-.8-.4-.8-.6 0-.2-.3-1.1-.6-1.4-.3-.2-.8-1.8-1-2.4-.2-.6-.9-.7-1.3-.9-.4-.2-1.1-1-1.2-1.3 0-.2-.7-.4-.9-.4.2-.3.5-.5.7-.6-.1.1-.3.2-.5.3-.3.3-.5.3-.5.3.1-.3.8-.8.8-.8-.2.1-.5.4-.7.6-.2.2-.4.1-.4.1.2-.5 1.1-1 1.1-1-.5.2-1.2.8-1.3 1v-.2c.5-.8 1.1-1.2 1.1-1.2-.4.2-.9.8-1.1 1.1v-.5c.1-.2.2-.3.2-.3-.1.1-.2.2-.2.3-.1-1.2-.2-3.5-.5-5.1-.3-2.2-1-5.5-2.2-4.4-1.2 1.1-3.9 5.1-5.1 10.1l-1.5.2.1-.3-.5.3-2.3 1s-1.7-4-3.4-6.2c-1.7-2.1-3.7-2.8-4.8-1.2-1.1 1.5-1.7 6.1-1.4 9.6.3 3.5 1.3 6.7 1.7 7.3 0 0 .1 2.1 1.1 4.8 1 2.7 3.1 5.8 4 7.3.9 1.5.8 2.6.6 3.1-.2.5-4 6.8-4.8 8.6-.8 1.8-2.1 6.7-2.1 6.9 0 .2-.5.7-1.3 1.7 0 0-10.1 12.8-11.1 18.8l-.9 6s-1.9 6.9-1.5 12.1c.4 5.2.6 6.7.6 6.7s-3.1.4-3.8 3.3c-.7 3.2 2.4 4.1 5.8 4.1 3.3 0 38.6-1.1 38.6-1.1s.7.1.6-.1c1-.2 3.3-.7 3.8-1.1.7-.6 1-1.7.5-2.3-.5-.6-2.5-1.4-3.5-1.5l-1-.1s-.9-.7-1.3-2.5-1.4-7.4-1.5-8.3c-.1-1-.5-3.6-.5-4.1 0-.6.4-4.3.5-4.9.1-1.1.2-5.2.4-7.1 0 0-.4-.9.7-3.1l.3-.6c.4-.8.7-1.5.9-2.1 0 0 .2.5.3.8v-1c-.1-.2 0-.1 0-.1s.3.9.5 1c0 0-.4-.9-.3-1.3.1-.4.2-.7.2-.7s0 .8.1 1c0 0 .2-1.1.1-1.6 0 0 .3.4.5.6 0-.2.1-1.1.2-1.5.1-.4.2-.5.2-.5l.2.4s-.1-.9 0-1.2c.1-.3.6-2.3.7-2.9.1-.6.5-4.5-.9-7.3s-4.8-9.8-5.3-11.6c-.6-1.8-1.1-3.4-.6-5.1.3-1.1 1-2.8 1.7-4 .3-.5 1.8-2.3 2.5-2.9.7-.5 1-.5 1.9-2.1 1-1.6 0-3.7 0-3.7l.1-.2c.5-.2.5-1 .5-1v-.1c.5.4 1.2.8 1.7 1.1.8.5 1.9.9 1.9.9s-1.1-.5-1.7-.8c-.4-.2-1.2-.8-1.8-1.2.3-.1.2-.7.1-.8v-.1h.3m-.7-.7c.1-.1.1-.1.2-.1-.1 0-.2 0-.2.1"/></svg>